<svg xmlns="http://www.w3.org/2000/svg" xmlns:xlink="http://www.w3.org/1999/xlink" width="179" height="117" viewBox="0 0 179 117"><defs><filter id="사각형_78" x="0" y="6" width="172" height="111" filterUnits="userSpaceOnUse"><feOffset dy="3"></feOffset><feGaussianBlur stdDeviation="3" result="blur"></feGaussianBlur><feFlood flood-opacity="0.161"></feFlood><feComposite operator="in" in2="blur"></feComposite><feComposite in="SourceGraphic"></feComposite></filter><filter id="사각형_78-2" x="3" y="4" width="172" height="111" filterUnits="userSpaceOnUse"><feOffset dy="3"></feOffset><feGaussianBlur stdDeviation="3" result="blur-2"></feGaussianBlur><feFlood flood-opacity="0.161"></feFlood><feComposite operator="in" in2="blur-2"></feComposite><feComposite in="SourceGraphic"></feComposite></filter><filter id="사각형_78-3" x="5" y="2" width="172" height="111" filterUnits="userSpaceOnUse"><feOffset dy="3"></feOffset><feGaussianBlur stdDeviation="3" result="blur-3"></feGaussianBlur><feFlood flood-opacity="0.161"></feFlood><feComposite operator="in" in2="blur-3"></feComposite><feComposite in="SourceGraphic"></feComposite></filter><filter id="사각형_78-4" x="7" y="0" width="172" height="111" filterUnits="userSpaceOnUse"><feOffset dy="3"></feOffset><feGaussianBlur stdDeviation="3" result="blur-4"></feGaussianBlur><feFlood flood-opacity="0.161"></feFlood><feComposite operator="in" in2="blur-4"></feComposite><feComposite in="SourceGraphic"></feComposite></filter><filter id="사각형_78-5" x="6.673" y="0" width="172.327" height="110.854" filterUnits="userSpaceOnUse"><feOffset dy="3"></feOffset><feGaussianBlur stdDeviation="3" result="blur-5"></feGaussianBlur><feFlood flood-opacity="0.161"></feFlood><feComposite operator="in" in2="blur-5"></feComposite><feComposite in="SourceGraphic"></feComposite></filter><clipPath id="clip-path"><path id="합치기_3" d="M79.615,131.553l5.487-1.78v8.156l-5.487,1.733Zm-6.758,6.375v-8.155l5.487,1.78v8.109Zm-6.569-6.375,5.487-1.78v8.156l-5.487,1.733Zm-6.758,6.375v-8.155l5.487,1.78v8.109Zm-6.568-6.375,5.487-1.78v7.82l-5.487,2.069Zm-6.758,6.04v-7.82l5.487,1.78v8.109Zm-6.568-6.04,5.487-1.78v8.156l-5.487,1.733Zm-6.758,6.375v-8.155l5.487,1.78v8.109Zm-6.569-6.375,5.487-1.78v8.156l-5.487,1.733Zm-6.758,6.375v-8.155l5.487,1.78v8.109Zm-6.568-6.375,5.487-1.78v7.82l-5.487,2.069Zm-6.758,6.04v-7.82l5.487,1.78v8.109Zm67.9-8.641,4.91-1.638,5.189,1.638-5.189,1.606Zm-13.326,0,4.91-1.638,5.189,1.638-5.189,1.606Zm-13.326,0,4.91-1.638,5.189,1.638-5.189,1.606Zm-13.326,0,4.91-1.638,5.189,1.638-5.189,1.606Zm-13.326,0,4.91-1.638,5.189,1.638-5.189,1.606Zm-13.326,0,4.91-1.638,5.189,1.638L12.4,130.558Zm79.221-9.181,5.487-1.78v8.156l-5.487,1.733Zm-6.758,6.375v-8.154l5.487,1.78v8.11Zm-6.569-6.375,5.487-1.78v8.156l-5.487,1.733Zm-6.758,6.375v-8.154l5.487,1.78v8.11Zm-6.568-6.375,5.487-1.78v7.82l-5.487,2.069Zm-6.758,6.04v-7.82l5.487,1.78v8.11Zm-6.568-6.04,5.487-1.78v8.156l-5.487,1.733Zm-6.758,6.375v-8.154l5.487,1.78v8.11Zm-6.569-6.375,5.487-1.78v8.156l-5.487,1.733Zm-6.758,6.375v-8.154l5.487,1.78v8.11Zm-6.568-6.375,5.487-1.78v7.82l-5.487,2.069Zm-6.758,6.04v-7.82l5.487,1.78v8.11Zm-6.569-6.04,5.487-1.78v7.82l-5.487,2.069ZM0,125.811v-7.82l5.487,1.78v8.11Zm81.226-8.641,4.91-1.638,5.189,1.638-5.189,1.606Zm-13.326,0,4.91-1.638L78,117.17l-5.189,1.606Zm-13.326,0,4.91-1.638,5.189,1.638-5.189,1.606Zm-13.326,0,4.91-1.638,5.189,1.638-5.189,1.606Zm-13.326,0,4.91-1.638,5.189,1.638-5.189,1.606Zm-13.326,0,4.91-1.638,5.189,1.638L19.5,118.776Zm-13.326,0,4.91-1.638,5.189,1.638-5.189,1.606Zm78.347-8.831,5.487-1.78v8.156l-5.487,1.733Zm-6.758,6.375v-8.155l5.487,1.78v8.109Zm-6.569-6.375,5.487-1.78v8.156l-5.487,1.733Zm-6.758,6.375v-8.155l5.487,1.78v8.109Zm-6.568-6.375,5.487-1.78v7.82l-5.487,2.069Zm-6.758,6.04v-7.82l5.487,1.78v8.109Zm-6.568-6.04,5.487-1.78v8.156l-5.487,1.733Zm-6.758,6.375v-8.155l5.487,1.78v8.109Zm-6.569-6.375,5.487-1.78v8.156l-5.487,1.733Zm-6.758,6.375v-8.155l5.487,1.78v8.109Zm-6.568-6.375,5.487-1.78v7.82l-5.487,2.069Zm-6.758,6.04v-7.82l5.487,1.78v8.109Zm67.9-8.641,4.91-1.638,5.189,1.638-5.189,1.606Zm-13.326,0,4.91-1.638,5.189,1.638-5.189,1.606Zm-13.326,0,4.91-1.638,5.189,1.638-5.189,1.606Zm-13.326,0,4.91-1.638,5.189,1.638-5.189,1.606Zm-13.326,0,4.91-1.638,5.189,1.638-5.189,1.606Zm-13.326,0L12.4,104.1l5.189,1.638L12.4,107.344Zm79.221-9.181,5.487-1.78v8.156l-5.487,1.733Zm-6.758,6.375V94.778l5.487,1.78v8.11Zm-6.569-6.375,5.487-1.78v8.156l-5.487,1.733Zm-6.758,6.375V94.778l5.487,1.78v8.11Zm-6.568-6.375,5.487-1.78v7.82l-5.487,2.069Zm-6.758,6.04v-7.82l5.487,1.78v8.11Zm-6.568-6.04,5.487-1.78v8.156l-5.487,1.733Zm-6.758,6.375V94.778l5.487,1.78v8.11ZM33.41,96.558l5.487-1.78v8.156l-5.487,1.733Zm-6.758,6.375V94.778l5.487,1.78v8.11Zm-6.568-6.375,5.487-1.78v7.82l-5.487,2.069Zm-6.758,6.04v-7.82l5.487,1.78v8.11Zm-6.569-6.04,5.487-1.78v7.82l-5.487,2.069ZM0,102.6v-7.82l5.487,1.78v8.11Zm81.226-8.641,4.91-1.638,5.189,1.638-5.189,1.606Zm-13.326,0,4.91-1.638L78,93.957l-5.189,1.606Zm-13.326,0,4.91-1.638,5.189,1.638-5.189,1.606Zm-13.326,0,4.91-1.638,5.189,1.638-5.189,1.606Zm-13.326,0,4.91-1.638,5.189,1.638L32.83,95.563Zm-13.326,0,4.91-1.638,5.189,1.638L19.5,95.563Zm-13.326,0,4.91-1.638,5.189,1.638L6.178,95.563Zm78.347-8.831,5.487-1.78V91.5l-5.487,1.733ZM72.857,91.5V83.346l5.487,1.78v8.109Zm-6.569-6.375,5.487-1.78V91.5l-5.487,1.733ZM59.531,91.5V83.346l5.487,1.78v8.109Zm-6.568-6.375,5.487-1.78v7.82l-5.487,2.069ZM46.2,91.166v-7.82l5.487,1.78v8.109Zm-6.568-6.04,5.487-1.78V91.5l-5.487,1.733ZM32.879,91.5V83.346l5.487,1.78v8.109ZM26.31,85.126l5.487-1.78V91.5L26.31,93.235ZM19.552,91.5V83.346l5.487,1.78v8.109Zm-6.568-6.375,5.487-1.78v7.82l-5.487,2.069Zm-6.758,6.04v-7.82l5.487,1.78v8.109Zm67.9-8.641,4.91-1.638,5.189,1.638-5.189,1.606Zm-13.326,0,4.91-1.638L70.9,82.525l-5.189,1.606Zm-13.326,0,4.91-1.638,5.189,1.638-5.189,1.606Zm-13.326,0,4.91-1.638,5.189,1.638-5.189,1.606Zm-13.326,0,4.91-1.638,5.189,1.638L25.73,84.131Zm-13.326,0,4.91-1.638,5.189,1.638L12.4,84.131Zm79.221-9.181,5.487-1.78v8.156l-5.487,1.733Zm-6.758,6.375V71.564l5.487,1.78v8.11Zm-6.569-6.375,5.487-1.78v8.156l-5.487,1.733Zm-6.758,6.375V71.564l5.487,1.78v8.11Zm-6.568-6.375,5.487-1.78v7.82l-5.487,2.069Zm-6.758,6.04v-7.82l5.487,1.78v8.11Zm-6.568-6.04,5.487-1.78v8.156l-5.487,1.733Zm-6.758,6.375V71.564l5.487,1.78v8.11ZM33.41,73.344l5.487-1.78v8.156L33.41,81.454Zm-6.758,6.375V71.564l5.487,1.78v8.11Zm-6.568-6.375,5.487-1.78v7.82l-5.487,2.069Zm-6.758,6.04v-7.82l5.487,1.78v8.11Zm-6.569-6.04,5.487-1.78v7.82L6.758,81.454ZM0,79.384v-7.82l5.487,1.78v8.11Zm81.226-8.641,4.91-1.638,5.189,1.638-5.189,1.606Zm-13.326,0,4.91-1.638L78,70.743l-5.189,1.606Zm-13.326,0,4.91-1.638,5.189,1.638-5.189,1.606Zm-13.326,0,4.91-1.638,5.189,1.638-5.189,1.606Zm-13.326,0L32.83,69.1l5.189,1.638L32.83,72.349Zm-13.326,0L19.5,69.1l5.189,1.638L19.5,72.349Zm-13.326,0L6.178,69.1l5.189,1.638L6.178,72.349Zm78.347-8.831,5.487-1.78v8.156l-5.487,1.733Zm-6.758,6.375V60.132l5.487,1.78v8.109Zm-6.569-6.375,5.487-1.78v8.156l-5.487,1.733Zm-6.758,6.375V60.132l5.487,1.78v8.109Zm-6.568-6.375,5.487-1.78v7.82l-5.487,2.069ZM46.2,67.952v-7.82l5.487,1.78v8.109Zm-6.568-6.04,5.487-1.78v8.156l-5.487,1.733Zm-6.758,6.375V60.132l5.487,1.78v8.109ZM26.31,61.912l5.487-1.78v8.156L26.31,70.022Zm-6.758,6.375V60.132l5.487,1.78v8.109Zm-6.568-6.375,5.487-1.78v7.82l-5.487,2.069Zm-6.758,6.04v-7.82l5.487,1.78v8.109Zm67.9-8.641,4.91-1.638,5.189,1.638-5.189,1.606Zm-13.326,0,4.91-1.638L70.9,59.311l-5.189,1.606Zm-13.326,0,4.91-1.638,5.189,1.638-5.189,1.606Zm-13.326,0,4.91-1.638,5.189,1.638-5.189,1.606Zm-13.326,0,4.91-1.638,5.189,1.638L25.73,60.917Zm-13.326,0,4.91-1.638,5.189,1.638L12.4,60.917Zm79.221-1V50.2l5.487-1.78v8.156Zm-6.758-1.734V48.419l5.487,1.78v8.109Zm-6.569,1.734V50.2l5.487-1.78v8.156Zm-6.758-1.734V48.419l5.487,1.78v8.109Zm-6.568,1.734V50.2l5.487-1.78v7.82ZM53.305,56.24v-7.82l5.487,1.78v8.109Zm-6.568,2.069V50.2l5.487-1.78v8.156Zm-6.758-1.734V48.419l5.487,1.78v8.109ZM33.41,58.309V50.2l5.487-1.78v8.156Zm-6.758-1.734V48.419l5.487,1.78v8.109Zm-6.568,1.734V50.2l5.487-1.78v7.82ZM13.326,56.24v-7.82l5.487,1.78v8.109ZM6.758,58.309V50.2l5.487-1.78v7.82ZM0,56.24v-7.82L5.487,50.2v8.109ZM81.226,47.6l4.91-1.638L91.325,47.6,86.136,49.2ZM67.9,47.6l4.91-1.638L78,47.6,72.809,49.2Zm-13.326,0,4.91-1.638L64.672,47.6,59.483,49.2Zm-13.326,0,4.91-1.638L51.346,47.6,46.157,49.2Zm-13.326,0,4.91-1.638L38.019,47.6,32.83,49.2Zm-13.326,0L19.5,45.96,24.693,47.6,19.5,49.2Zm-13.326,0,4.91-1.638L11.367,47.6,6.178,49.2Zm78.347-.722V38.767l5.487-1.78v8.156Zm-6.758-1.734V36.987l5.487,1.78v8.109Zm-6.569,1.734V38.767l5.487-1.78v8.156Zm-6.758-1.734V36.987l5.487,1.78v8.109Zm-6.568,1.734V38.767l5.487-1.78v7.82ZM46.2,44.807v-7.82l5.487,1.78v8.109Zm-6.568,2.069V38.767l5.487-1.78v8.156Zm-6.758-1.734V36.987l5.487,1.78v8.109ZM26.31,46.877V38.767l5.487-1.78v8.156Zm-6.758-1.734V36.987l5.487,1.78v8.109Zm-6.568,1.734V38.767l5.487-1.78v7.82ZM6.226,44.807v-7.82l5.487,1.78v8.109Zm67.9-8.641,4.91-1.638,5.189,1.638-5.189,1.606Zm-13.326,0,4.91-1.638L70.9,36.166l-5.189,1.606Zm-13.326,0,4.91-1.638,5.189,1.638-5.189,1.606Zm-13.326,0,4.91-1.638,5.189,1.638-5.189,1.606Zm-13.326,0,4.91-1.638,5.189,1.638L25.73,37.772Zm-13.326,0,4.91-1.638,5.189,1.638L12.4,37.772Zm79.221-.778V27.279L92.2,25.5v8.156Zm-6.758-1.734V25.5l5.487,1.78v8.109Zm-6.569,1.734V27.279l5.487-1.78v8.156Zm-6.758-1.734V25.5l5.487,1.78v8.109Zm-6.568,1.734V27.279L65.55,25.5v7.82Zm-6.758-2.069V25.5l5.487,1.78v8.109Zm-6.568,2.069V27.279l5.487-1.78v8.156Zm-6.758-1.734V25.5l5.487,1.78v8.109ZM33.41,35.388V27.279L38.9,25.5v8.156Zm-6.758-1.734V25.5l5.487,1.78v8.109Zm-6.568,1.734V27.279l5.487-1.78v7.82Zm-6.758-2.069V25.5l5.487,1.78v8.109ZM6.758,35.388V27.279l5.487-1.78v7.82ZM0,33.319V25.5l5.487,1.78v8.109Zm81.226-8.641,4.91-1.638,5.189,1.638-5.189,1.606Zm-13.326,0,4.91-1.638L78,24.677l-5.189,1.606Zm-13.326,0,4.91-1.638,5.189,1.638-5.189,1.606Zm-13.326,0,4.91-1.638,5.189,1.638-5.189,1.606Zm-13.326,0,4.91-1.638,5.189,1.638L32.83,26.283Zm-13.326,0,4.91-1.638,5.189,1.638L19.5,26.283Zm-13.326,0,4.91-1.638,5.189,1.638L6.178,26.283Zm78.347-.722V15.846l5.487-1.78v8.156Zm-6.758-1.734V14.066l5.487,1.78v8.109Zm-6.569,1.734V15.846l5.487-1.78v8.156Zm-6.758-1.734V14.066l5.487,1.78v8.109Zm-6.568,1.734V15.846l5.487-1.78v7.82ZM46.2,21.886v-7.82l5.487,1.78v8.109Zm-6.568,2.069V15.846l5.487-1.78v8.156Zm-6.758-1.734V14.066l5.487,1.78v8.109ZM26.31,23.956V15.846l5.487-1.78v8.156Zm-6.758-1.734V14.066l5.487,1.78v8.109Zm-6.568,1.734V15.846l5.487-1.78v7.82ZM6.226,21.886v-7.82l5.487,1.78v8.109Zm67.9-8.641,4.91-1.638,5.189,1.638-5.189,1.606Zm-13.326,0,4.91-1.638L70.9,13.245l-5.189,1.606Zm-13.326,0,4.91-1.638,5.189,1.638-5.189,1.606Zm-13.326,0,4.91-1.638,5.189,1.638-5.189,1.606Zm-13.326,0,4.91-1.638,5.189,1.638L25.73,14.851Zm-13.326,0,4.91-1.638,5.189,1.638L12.4,14.851Zm79.221-.9V4.24L92.2,2.459v8.156Zm-6.758-1.734V2.459l5.487,1.78v8.109Zm-6.569,1.734V4.24l5.487-1.78v8.156Zm-6.758-1.734V2.459l5.487,1.78v8.109Zm-6.568,1.734V4.24l5.487-1.78v7.82ZM53.305,10.28V2.459l5.487,1.78v8.109Zm-6.568,2.069V4.24l5.487-1.78v8.156Zm-6.758-1.734V2.459l5.487,1.78v8.109ZM33.41,12.349V4.24L38.9,2.459v8.156Zm-6.758-1.734V2.459l5.487,1.78v8.109Zm-6.568,1.734V4.24l5.487-1.78v7.82ZM13.326,10.28V2.459l5.487,1.78v8.109ZM6.758,12.349V4.24l5.487-1.78v7.82ZM0,10.28V2.459L5.487,4.24v8.109ZM81.226,1.638,86.136,0l5.189,1.638L86.136,3.244Zm-13.326,0L72.809,0,78,1.638,72.809,3.244Zm-13.326,0L59.483,0l5.189,1.638L59.483,3.244Zm-13.326,0L46.157,0l5.189,1.638L46.157,3.244Zm-13.326,0L32.83,0l5.189,1.638L32.83,3.244Zm-13.326,0L19.5,0l5.189,1.638L19.5,3.244Zm-13.326,0L6.178,0l5.189,1.638L6.178,3.244Z" fill="#f18c1a"></path></clipPath></defs><g id="그룹_367" transform="translate(-1716 344)"><g id="그룹_365" transform="translate(562 -837)"><g id="그룹_29" transform="translate(747 919)"><g id="그룹_27" transform="translate(-110.5 -466.5) rotate(90)"><g transform="matrix(0, -1, 1, 0, 40.5, -517.5)" filter="url(#사각형_78)"><rect id="사각형_78-6" width="93" height="154" rx="7" transform="translate(163 12) rotate(90)" fill="#fff"></rect></g><g id="사각형_79" transform="translate(55.5 -676.5)" fill="#fff" stroke="#f8981d" stroke-width="0.5"><rect width="87" height="146" rx="4" stroke="none"></rect><rect x="0.25" y="0.25" width="86.5" height="145.5" rx="3.75" fill="none"></rect></g><g id="사각형_81" transform="translate(58.5 -673.5)" fill="#f8981d" stroke="#f8981d" stroke-width="1"><rect width="81" height="140" rx="2" stroke="none"></rect><rect x="0.5" y="0.5" width="80" height="139" rx="1.5" fill="none"></rect></g></g></g><g id="그룹_30" transform="translate(750 917)"><g id="그룹_27-2" transform="translate(-110.5 -466.5) rotate(90)"><g transform="matrix(0, -1, 1, 0, 42.5, -514.5)" filter="url(#사각형_78-2)"><rect id="사각형_78-7" width="93" height="154" rx="7" transform="translate(166 10) rotate(90)" fill="#fff"></rect></g><g id="사각형_79-2" transform="translate(55.5 -676.5)" fill="#fff" stroke="#f8981d" stroke-width="0.5"><rect width="87" height="146" rx="4" stroke="none"></rect><rect x="0.25" y="0.25" width="86.5" height="145.5" rx="3.75" fill="none"></rect></g><g id="사각형_81-2" transform="translate(58.5 -673.5)" fill="#f8981d" stroke="#f8981d" stroke-width="1"><rect width="81" height="140" rx="2" stroke="none"></rect><rect x="0.5" y="0.5" width="80" height="139" rx="1.5" fill="none"></rect></g></g></g><g id="그룹_31" transform="translate(752 915)"><g id="그룹_27-3" transform="translate(-110.5 -466.5) rotate(90)"><g transform="matrix(0, -1, 1, 0, 44.5, -512.5)" filter="url(#사각형_78-3)"><rect id="사각형_78-8" width="93" height="154" rx="7" transform="translate(168 8) rotate(90)" fill="#fff"></rect></g><g id="사각형_79-3" transform="translate(55.5 -676.5)" fill="#fff" stroke="#f8981d" stroke-width="0.5"><rect width="87" height="146" rx="4" stroke="none"></rect><rect x="0.25" y="0.25" width="86.5" height="145.5" rx="3.75" fill="none"></rect></g><g id="사각형_81-3" transform="translate(58.5 -673.5)" fill="#f8981d" stroke="#f8981d" stroke-width="1"><rect width="81" height="140" rx="2" stroke="none"></rect><rect x="0.5" y="0.5" width="80" height="139" rx="1.5" fill="none"></rect></g></g></g><g id="그룹_32" transform="translate(754 913)"><g id="그룹_27-4" transform="translate(-110.5 -466.5) rotate(90)"><g transform="matrix(0, -1, 1, 0, 46.5, -510.5)" filter="url(#사각형_78-4)"><rect id="사각형_78-9" width="93" height="154" rx="7" transform="translate(170 6) rotate(90)" fill="#fff"></rect></g><g id="사각형_79-4" transform="translate(55.5 -676.5)" fill="#fff" stroke="#f8981d" stroke-width="0.5"><rect width="87" height="146" rx="4" stroke="none"></rect><rect x="0.25" y="0.25" width="86.5" height="145.5" rx="3.75" fill="none"></rect></g><g id="사각형_81-4" transform="translate(58.5 -673.5)" fill="#f8981d" stroke="#f8981d" stroke-width="1"><rect width="81" height="140" rx="2" stroke="none"></rect><rect x="0.5" y="0.5" width="80" height="139" rx="1.5" fill="none"></rect></g></g></g></g><g id="그룹_366" transform="translate(1353 -599) rotate(90)"><g id="그룹_355" transform="translate(261 -533)"><g transform="matrix(0, -1, 1, 0, -6, 170)" filter="url(#사각형_78-5)"><rect id="사각형_78-10" width="92.854" height="154.327" rx="7" transform="translate(170 6) rotate(90)" fill="#fff"></rect></g></g><g id="그룹_354" transform="translate(261.43 -526.122)"><g id="그룹_353" transform="translate(6.964 0)"><path id="패스_18" d="M.831,0H77.673A.846.846,0,0,1,78.5.86V139.281a.846.846,0,0,1-.831.86H.831a.846.846,0,0,1-.831-.86V.86A.846.846,0,0,1,.831,0Z" transform="translate(0)" fill="#f1c669"></path></g><g id="마스크_그룹_7" transform="translate(0)" clip-path="url(#clip-path)"><g id="그룹_352" transform="translate(6.964 0)"><path id="패스_18-2" d="M.831,0H77.673A.846.846,0,0,1,78.5.86V139.281a.846.846,0,0,1-.831.86H.831a.846.846,0,0,1-.831-.86V.86A.846.846,0,0,1,.831,0Z" transform="translate(0)" fill="#f18c1a"></path></g></g></g></g></g></svg>