<svg xmlns="http://www.w3.org/2000/svg" xmlns:xlink="http://www.w3.org/1999/xlink" width="298" height="424" viewBox="0 0 298 424"><defs><filter id="사각형_10" x="0" y="0" width="298" height="424" filterUnits="userSpaceOnUse"><feOffset dy="3"></feOffset><feGaussianBlur stdDeviation="5" result="blur"></feGaussianBlur><feFlood flood-opacity="0.161"></feFlood><feComposite operator="in" in2="blur"></feComposite><feComposite in="SourceGraphic"></feComposite></filter><filter id="사각형_10-2" x="0" y="0" width="298" height="424" filterUnits="userSpaceOnUse"><feOffset dy="3"></feOffset><feGaussianBlur stdDeviation="5" result="blur-2"></feGaussianBlur><feFlood flood-opacity="0.161"></feFlood><feComposite operator="in" in2="blur-2"></feComposite><feComposite in="SourceGraphic"></feComposite></filter></defs><g id="그룹_414" transform="translate(343 -1317)"><g id="그룹_375" transform="translate(-328.248 1332)"><g transform="matrix(1, 0, 0, 1, -14.75, -15)" filter="url(#사각형_10)"><rect id="사각형_10-3" width="268" height="394" rx="17" transform="translate(15 12)" fill="#fff"></rect></g><g id="그룹_359" transform="translate(-321.75 904)"><path id="패스_12" d="M9.642-7.9,22.406-3.761V15.1L9.642,10.29Z" transform="translate(334.855 -847.197)" fill="#f18c1a"></path><path id="패스_15" d="M630.17-606.375l11.422,3.736,12.07-3.736-12.07-3.812Z" transform="translate(-282.723 -250.633)" fill="#f18c1a"></path><path id="패스_16" d="M22.406-7.9,9.642-3.761V15.1l12.764-4.031Z" transform="translate(350.576 -847.197)" fill="#f18c1a"></path><path id="패스_17" d="M9.642-7.9,22.406-3.761V15.1L9.642,11.069Z" transform="translate(334.855 -847.197)" fill="#f18c1a"></path></g></g><g transform="matrix(1, 0, 0, 1, -343, 1317)" filter="url(#사각형_10-2)"><rect id="사각형_10-4" width="268" height="394" rx="17" transform="translate(15 12)" fill="#fff"></rect></g><path id="heart" d="M18,31.5a2.25,2.25,0,0,1-1.266-.392c-5.526-3.751-7.919-6.323-9.238-7.931A16.3,16.3,0,0,1,3.375,12.419,7.931,7.931,0,0,1,11.185,4.5a8.554,8.554,0,0,1,6.5,3.2.422.422,0,0,0,.637,0,8.55,8.55,0,0,1,6.5-3.2,7.932,7.932,0,0,1,7.81,7.92A16.307,16.307,0,0,1,28.5,23.178c-1.32,1.608-3.712,4.18-9.238,7.931A2.25,2.25,0,0,1,18,31.5Z" transform="translate(-302.374 1372.322)" fill="#ef294d"></path></g></svg>