<svg xmlns="http://www.w3.org/2000/svg" xmlns:xlink="http://www.w3.org/1999/xlink" width="298" height="437" viewBox="0 0 298 437"><defs><filter id="패스_866" x="0" y="0" width="298" height="437" filterUnits="userSpaceOnUse"><feOffset dy="3"></feOffset><feGaussianBlur stdDeviation="5" result="blur"></feGaussianBlur><feFlood flood-opacity="0.161"></feFlood><feComposite operator="in" in2="blur"></feComposite><feComposite in="SourceGraphic"></feComposite></filter><clipPath id="clip-path"><rect id="사각형_102" width="240" height="377" rx="13" fill="#f8f8f8" stroke="#707070" stroke-width="1"></rect></clipPath><linearGradient id="linear-gradient" x1="0.5" x2="0.5" y2="1" gradientUnits="objectBoundingBox"><stop offset="0" stop-color="#fff" stop-opacity="0"></stop><stop offset="1" stop-color="#fff"></stop></linearGradient></defs><g id="그룹_362" transform="translate(-1373 753)"><g transform="matrix(1, 0, 0, 1, 1373, -753)" filter="url(#패스_866)"><path id="패스_866-2" d="M17,0H251a17,17,0,0,1,17,17V390a17,17,0,0,1-17,17H17A17,17,0,0,1,0,390V17A17,17,0,0,1,17,0Z" transform="translate(15 12)" fill="#fff"></path></g><rect id="사각형_101" width="240" height="377" rx="13" transform="translate(1402 -726)" fill="#aedffd"></rect><g id="마스크_그룹_8" transform="translate(1402 -726)" clip-path="url(#clip-path)"><g id="person" transform="translate(-59.256 53.789)"><path id="패스_867" d="M331.657,361.4s29.742,0,29.742-29.742S331.657,212.691,182.949,212.691,4.5,301.916,4.5,331.657,34.242,361.4,34.242,361.4ZM34.387,333.323v0Zm.5-1.666H331q.212-.027.423-.066l.238-.066c-.026-7.31-4.574-29.332-24.745-49.49-19.392-19.378-55.888-39.6-123.963-39.6-68.1,0-104.571,20.224-123.963,39.616-20.171,20.171-24.679,42.167-24.745,49.49Q34.565,331.6,34.889,331.657Zm296.649,1.666v0ZM182.949,153.208a59.483,59.483,0,1,0-59.483-59.483A59.483,59.483,0,0,0,182.949,153.208Zm89.225-59.483A89.225,89.225,0,1,1,182.949,4.5,89.225,89.225,0,0,1,272.174,93.725Z" transform="translate(-4.5 -4.5)" fill="#eff3f8" fill-rule="evenodd"></path></g><path id="패스_868" d="M89,0A89,89,0,1,1,0,89,89,89,0,0,1,89,0Z" transform="translate(31 54)" fill="#eff3f8"></path><ellipse id="타원_22" cx="158" cy="89" rx="158" ry="89" transform="translate(-38 277)" fill="#eff3f8"></ellipse></g><rect id="사각형_103" width="240" height="183" rx="13" transform="translate(1402 -532)" fill="url(#linear-gradient)"></rect></g></svg>