<svg xmlns="http://www.w3.org/2000/svg" xmlns:xlink="http://www.w3.org/1999/xlink" width="1118" height="655" viewBox="0 0 1118 655"><defs><filter id="패스_871" x="0" y="0" width="1118" height="655" filterUnits="userSpaceOnUse"><feOffset dy="3"></feOffset><feGaussianBlur stdDeviation="5" result="blur"></feGaussianBlur><feFlood flood-opacity="0.251"></feFlood><feComposite operator="in" in2="blur"></feComposite><feComposite in="SourceGraphic"></feComposite></filter></defs><g id="그룹_394" transform="translate(-401 -237)"><path id="패스_872" d="M92,0H996a92,92,0,0,1,92,92V533a92,92,0,0,1-92,92H92A92,92,0,0,1,0,533V92A92,92,0,0,1,92,0Z" transform="translate(416 249)" fill="#f16969"></path><g transform="matrix(1, 0, 0, 1, 401, 237)" filter="url(#패스_871)"><g id="패스_871-2" transform="translate(15 12)" fill="none" stroke-linecap="round"><path d="M78,0h932a78,78,0,0,1,78,78V547a78,78,0,0,1-78,78H78A78,78,0,0,1,0,547V78A78,78,0,0,1,78,0Z" stroke="none"></path><path d="M 78 50 C 62.5606689453125 50 50 62.56072998046875 50 78 L 50 547 C 50 562.4392700195312 62.5606689453125 575 78 575 L 1010 575 C 1025.439331054688 575 1038 562.4392700195312 1038 547 L 1038 78 C 1038 62.56072998046875 1025.439331054688 50 1010 50 L 78 50 M 78 0 L 1010 0 C 1053.078125 0 1088 34.92181396484375 1088 78 L 1088 547 C 1088 590.0781860351562 1053.078125 625 1010 625 L 78 625 C 34.921875 625 0 590.0781860351562 0 547 L 0 78 C 0 34.92181396484375 34.921875 0 78 0 Z" stroke="none" fill="#f9bc32"></path></g></g><g id="사각형_75" transform="translate(514 347)" fill="none" stroke="#fff" stroke-linecap="round" stroke-width="2" opacity="0.52"><rect width="892" height="429" rx="20" stroke="none"></rect><rect x="1" y="1" width="890" height="427" rx="19" fill="none"></rect></g><g id="패스_874" transform="translate(416 249)" fill="none" stroke-linecap="round"><path d="M78,0h932a78,78,0,0,1,78,78V547a78,78,0,0,1-78,78H78A78,78,0,0,1,0,547V78A78,78,0,0,1,78,0Z" stroke="none"></path><path d="M 78 15 C 43.26171875 15 15 43.26171875 15 78 L 15 547 C 15 581.73828125 43.26171875 610 78 610 L 1010 610 C 1044.73828125 610 1073 581.73828125 1073 547 L 1073 78 C 1073 43.26171875 1044.73828125 15 1010 15 L 78 15 M 78 0 L 1010 0 C 1053.078125 0 1088 34.921875 1088 78 L 1088 547 C 1088 590.078125 1053.078125 625 1010 625 L 78 625 C 34.9217529296875 625 0 590.078125 0 547 L 0 78 C 0 34.921875 34.9217529296875 0 78 0 Z" stroke="none" fill="#e4a923"></path></g><g id="사각형_76" transform="translate(528 358)" fill="none" stroke="#fff" stroke-linecap="round" stroke-width="2" opacity="0.52"><rect width="864" height="407" rx="14" stroke="none"></rect><rect x="1" y="1" width="862" height="405" rx="13" fill="none"></rect></g></g></svg>