<svg xmlns="http://www.w3.org/2000/svg" width="562" height="123" viewBox="0 0 562 123"><g id="그룹_413" transform="translate(751 430)"><text id="ND" transform="translate(-735 -331)" fill="#f8981d" font-size="85" font-family="NotoSansKR-Medium, Noto Sans KR" font-weight="500"><tspan x="0" y="0">ND</tspan></text><text id="AN_FAKE" transform="translate(-588 -331)" fill="#f8981d" font-size="85" font-family="NotoSansKR-Medium, Noto Sans KR" font-weight="500"><tspan x="0" y="0">AN FAKE</tspan></text><path id="사각형_119" d="M5,0h5a0,0,0,0,1,0,0V59a5,5,0,0,1-5,5H0a0,0,0,0,1,0,0V5A5,5,0,0,1,5,0Z" transform="translate(-751 -394)" fill="#f8981d"></path><path id="사각형_120" d="M5,0h5a0,0,0,0,1,0,0V59a5,5,0,0,1-5,5H0a0,0,0,0,1,0,0V5A5,5,0,0,1,5,0Z" transform="translate(-606 -394)" fill="#f8981d"></path><text id="ND-2" transform="translate(-735 -331)" fill="#f8981d" font-size="85" font-family="NotoSansKR-Medium, Noto Sans KR" font-weight="500"><tspan x="0" y="0">ND</tspan></text><text id="AN_FAKE-2" transform="translate(-588 -331)" fill="#f8981d" font-size="85" font-family="NotoSansKR-Medium, Noto Sans KR" font-weight="500"><tspan x="0" y="0">AN FAKE</tspan></text><path id="사각형_121" d="M5,0h5a0,0,0,0,1,0,0V59a5,5,0,0,1-5,5H0a0,0,0,0,1,0,0V5A5,5,0,0,1,5,0Z" transform="translate(-751 -394)" fill="#f8981d"></path><path id="사각형_122" d="M5,0h5a0,0,0,0,1,0,0V59a5,5,0,0,1-5,5H0a0,0,0,0,1,0,0V5A5,5,0,0,1,5,0Z" transform="translate(-606 -394)" fill="#f8981d"></path><g id="그룹_411" transform="translate(-184.204 -43.816)"><g id="그룹_410" transform="translate(203.777 383.429) rotate(30)"><g id="사각형_118" transform="translate(-601 -502)" fill="#fff" stroke="#1f1f1f" stroke-width="1"><rect width="38" height="55" rx="3" stroke="none"></rect><rect x="0.5" y="0.5" width="37" height="54" rx="2.5" fill="none"></rect></g><text id="_1" transform="translate(-596.914 -492)" fill="#1f1f1f" font-size="9" font-family="Helvetica"><tspan x="0" y="0">1</tspan></text><path id="heart" d="M7.049,11.284a.565.565,0,0,1-.318-.1A10.313,10.313,0,0,1,4.41,9.193a4.1,4.1,0,0,1-1.035-2.7A1.993,1.993,0,0,1,5.337,4.5a2.149,2.149,0,0,1,1.632.8.106.106,0,0,0,.16,0,2.148,2.148,0,0,1,1.632-.8,1.993,1.993,0,0,1,1.962,1.99,4.1,4.1,0,0,1-1.035,2.7,10.319,10.319,0,0,1-2.321,1.993.565.565,0,0,1-.318.1Z" transform="translate(-601.576 -494.751)" fill="#ef294d"></path></g><g id="smile" transform="translate(-69.699 -326.632) rotate(30)"><circle id="타원_25" cx="8.165" cy="8.165" r="8.165" transform="translate(2.179 1.52)" fill="#ffc83d"></circle><path id="패스_884" d="M10.014,1.125A8.889,8.889,0,1,0,18.9,10.014,8.889,8.889,0,0,0,10.014,1.125Zm5.447,14.337a7.676,7.676,0,1,1,1.651-2.449,7.676,7.676,0,0,1-1.651,2.449Z" fill="#1f1f1f"></path><path id="패스_887" d="M17.12,21.494a3.1,3.1,0,0,1-2.889,1.956h-.319a3.1,3.1,0,0,1-2.889-1.955l-.047-.119H9.7l.224.558a4.3,4.3,0,0,0,3.989,2.7h.319a4.3,4.3,0,0,0,3.989-2.7l.224-.559H17.168Z" transform="translate(-4.058 -9.583)"></path><circle id="타원_26" cx="1.054" cy="1.054" r="1.054" transform="translate(5.866 7.841)"></circle><circle id="타원_27" cx="1.054" cy="1.054" r="1.054" transform="translate(12.187 7.841)"></circle></g></g><text id="R" transform="translate(-245 -331)" fill="#f8981d" font-size="85" font-family="NotoSansKR-Medium, Noto Sans KR" font-weight="500"><tspan x="0" y="0">R</tspan></text><text id="R-2" transform="translate(-245 -331)" fill="#f8981d" font-size="85" font-family="NotoSansKR-Medium, Noto Sans KR" font-weight="500"><tspan x="0" y="0">R</tspan></text></g></svg>